<svg xmlns="http://www.w3.org/2000/svg" viewBox="0 0 293.33 293.33"><defs><style>.cls-1{fill:#ff711f;}.cls-2{fill:#ffa000;}.cls-3{fill:#fff;}.cls-4{fill:#ff341f;}.cls-5{fill:#350052;}</style></defs><title>Ativo 1</title><g id="Camada_2" data-name="Camada 2"><g id="Layer_1" data-name="Layer 1"><path class="cls-1" d="M249.33,220a14.67,14.67,0,1,1-14.67-14.67A14.67,14.67,0,0,1,249.33,220Z"/><path class="cls-1" d="M224.89,234.66h19.56a9.78,9.78,0,0,1,9.78,9.78V264H215.11V244.44A9.78,9.78,0,0,1,224.89,234.66Z"/><path class="cls-2" d="M136.89,205.33A83.11,83.11,0,0,1,72.31,70a83.11,83.11,0,1,0,80.27,133.86A83,83,0,0,1,136.89,205.33Z"/><path class="cls-3" d="M112.44,117.33A24.44,24.44,0,1,1,88,92.89,24.45,24.45,0,0,1,112.44,117.33Z"/><path class="cls-3" d="M73.33,141.78h29.33a19.56,19.56,0,0,1,19.56,19.56v39.11H53.78V161.33A19.56,19.56,0,0,1,73.33,141.78Z"/><path class="cls-4" d="M97.78,141.78H78.22l4.89,14.67-4.89,29.33L88,200.44l9.78-14.67-4.89-29.33Z"/><path class="cls-1" d="M249.33,44a14.67,14.67,0,1,1-14.67-14.67A14.67,14.67,0,0,1,249.33,44Z"/><path class="cls-1" d="M224.89,58.67h19.56a9.78,9.78,0,0,1,9.78,9.78V88H215.11V68.44A9.78,9.78,0,0,1,224.89,58.67Z"/><path class="cls-5" d="M215.11,92.89h39.11A4.89,4.89,0,0,0,259.11,88V68.44a14.67,14.67,0,0,0-8.41-13.25,19.55,19.55,0,1,0-32.07,0,14.67,14.67,0,0,0-8.41,13.25V88A4.89,4.89,0,0,0,215.11,92.89Zm34.22-9.78H220V68.44a4.89,4.89,0,0,1,4.89-4.89h19.56a4.89,4.89,0,0,1,4.89,4.89ZM234.66,34.22A9.78,9.78,0,1,1,224.89,44,9.78,9.78,0,0,1,234.66,34.22Z"/><path class="cls-5" d="M234.66,117.33A58.67,58.67,0,1,0,176,58.67,58.67,58.67,0,0,0,234.66,117.33Zm0-107.55a48.89,48.89,0,1,1-48.89,48.89A48.89,48.89,0,0,1,234.66,9.78Z"/><path class="cls-5" d="M250.7,231.19a19.55,19.55,0,1,0-32.07,0,14.67,14.67,0,0,0-8.41,13.25V264a4.89,4.89,0,0,0,4.89,4.89h39.11a4.89,4.89,0,0,0,4.89-4.89V244.44A14.67,14.67,0,0,0,250.7,231.19Zm-16-21a9.78,9.78,0,1,1-9.78,9.78A9.78,9.78,0,0,1,234.66,210.22Zm14.67,48.89H220V244.44a4.89,4.89,0,0,1,4.89-4.89h19.56a4.89,4.89,0,0,1,4.89,4.89Z"/><path class="cls-5" d="M234.66,176a58.67,58.67,0,1,0,58.67,58.67A58.67,58.67,0,0,0,234.66,176Zm0,107.55a48.89,48.89,0,1,1,48.89-48.89A48.89,48.89,0,0,1,234.66,283.55Z"/><path class="cls-5" d="M53.78,205.33h68.44a4.89,4.89,0,0,0,4.89-4.89V161.33a24.44,24.44,0,0,0-18-23.61,29.33,29.33,0,1,0-42.14,0,24.44,24.44,0,0,0-18,23.61v39.11A4.89,4.89,0,0,0,53.78,205.33ZM88,154.88l-3-8.21h6l-2.74,8.21a5.48,5.48,0,0,0,0,2.35l4.65,27.43-4.89,7-4.65-7L88,157.22A5.48,5.48,0,0,0,88,154.88Zm29.33,6.45v34.22H97.14l4.89-7.09a4.88,4.88,0,0,0,.78-3.47l-4.89-28.16,3.38-10.17h1.37A14.67,14.67,0,0,1,117.33,161.33ZM88,97.78a19.56,19.56,0,1,1-19.56,19.56A19.56,19.56,0,0,1,88,97.78ZM58.67,161.33a14.67,14.67,0,0,1,14.67-14.67H74.7l3.52,10.17L73.33,185a4.89,4.89,0,0,0,.78,3.47L79,195.55H58.67Z"/><path class="cls-5" d="M88,239.55a88,88,0,1,0-88-88A88,88,0,0,0,88,239.55ZM88,73.33A78.22,78.22,0,1,1,9.78,151.55,78.22,78.22,0,0,1,88,73.33Z"/><path class="cls-5" d="M229.77,132v29.33a4.89,4.89,0,0,0,9.78,0V132a4.89,4.89,0,0,0-9.78,0Z"/><path class="cls-5" d="M92.89,53.78a4.89,4.89,0,0,0,4.89-4.89V39.11a14.67,14.67,0,0,1,14.67-14.67h53.78a4.89,4.89,0,0,0,0-9.78H112.44A24.45,24.45,0,0,0,88,39.11v9.78A4.89,4.89,0,0,0,92.89,53.78Z"/></g></g></svg>